<?xml version="1.0" encoding="utf-8"?>
<!-- Generator: Adobe Illustrator 25.0.0, SVG Export Plug-In . SVG Version: 6.00 Build 0)  -->
<svg version="1.1" id="Layer_1" xmlns="http://www.w3.org/2000/svg" xmlns:xlink="http://www.w3.org/1999/xlink" x="0px" y="0px"
	 viewBox="0 0 120 120" style="enable-background:new 0 0 120 120;" xml:space="preserve">
<style type="text/css">
	.st0{fill:#231F20;}
	.st1{fill:#CF1F47;}
	.st2{fill:#E72F5E;}
	.st3{fill:#EF4376;}
	.st4{fill:#EE2E7C;}
	.st5{fill:#FED401;}
	.st6{fill:#FFFFFF;}
</style>
<g>
	<path class="st5" d="M85.4,5.63C65.01,83.34,17.27,82.4,10.47,93.87C21.28,109.65,39.43,120,60,120c33.14,0,60-26.86,60-60
		C120,35.94,105.84,15.19,85.4,5.63z"/>
	<path class="st2" d="M85.4,5.63C77.68,2.02,69.08,0,60,0C26.86,0,0,26.86,0,60c0,12.57,3.87,24.23,10.47,33.87c0,0,0,0,10.52-5.45
		C36.96,80.13,68.75,69.1,85.4,5.63z"/>
	<polygon class="st6" points="20.99,30.19 20.99,88.42 85.05,114.53 85.05,5.47 	"/>
	<path class="st2" d="M31.46,36.33l0.03,8.59l34.72-11.03v14.52l-7.93,2.69v0l-7.96,2.7c-1.61,0.54-2.73,2.01-2.83,3.7
		c-0.1,1.69,0.83,3.28,2.36,4.02l7.98,3.85l0,0l8.38,4.04v17.42L31.3,73.88l0.01,8.6l43.26,17.37v-5.3V66.79v-2.63l-2.36-1.14l0,0
		l-9.52-4.59l9.05-3.07l0,0l2.84-0.96v-3V26.99V21.7L31.46,36.33z"/>
</g>
</svg>
